<svg version="1.1" xmlns="http://www.w3.org/2000/svg" viewBox="-182.27199096679686 -1668.6080810546875 11517.981177604068 2780.1601318359376"><desc>Created with Snap</desc><defs></defs><g><rect x="-182.27199096679686" y="-1668.6080810546875" width="11517.981177604068" height="2780.1601318359376" fill="#f2d398" style=""></rect><g transform="matrix(28.5055,0,0,28.5055,8506.0818,-1718.0828)"><g><path d="M74.265,60.41c0.964,2.929,1.401,5.966,1.261,9.015c2.584-0.989,5.013-2.49,7.095-4.572c0.244-0.244,0.41-0.527,0.637-0.78   c0.018-0.341,0.105-0.659,0.105-1.004c0-2.924-0.646-5.691-1.764-8.203C79.522,57.139,77.045,59.022,74.265,60.41z" fill="#292929" style=""></path><path d="M54.863,81.605c2.509,1.112,5.276,1.759,8.2,1.759c0.349,0,0.664-0.085,1.004-0.103c0.253-0.227,0.541-0.393,0.781-0.637   c2.08-2.085,3.585-4.516,4.572-7.104c-3.049,0.14-6.086-0.292-9.01-1.257C59.022,77.049,57.137,79.528,54.863,81.605z" fill="#292929" style=""></path><path d="M40.588,74.265c-2.925,0.965-5.965,1.396-9.013,1.257c0.988,2.588,2.49,5.023,4.573,7.104   c0.242,0.244,0.528,0.41,0.779,0.637c0.339,0.018,0.661,0.103,1.003,0.103c2.926,0,5.691-0.646,8.202-1.759   C43.861,79.528,41.976,77.049,40.588,74.265z" fill="#292929" style=""></path><path d="M26.731,60.41c-2.781-1.388-5.26-3.271-7.337-5.545c-1.112,2.512-1.758,5.279-1.758,8.203c0,0.345,0.085,0.663,0.1,1.004   c0.229,0.253,0.395,0.536,0.639,0.78c2.082,2.082,4.515,3.583,7.098,4.572C25.333,66.376,25.767,63.339,26.731,60.41z" fill="#292929" style=""></path><path d="M26.731,40.592c-0.964-2.929-1.398-5.966-1.259-9.016c-2.583,0.989-5.014,2.491-7.098,4.572   c-0.244,0.245-0.41,0.528-0.639,0.781c-0.015,0.341-0.1,0.659-0.1,1.004c0,2.924,0.646,5.69,1.76,8.205   C21.471,43.863,23.95,41.979,26.731,40.592z" fill="#292929" style=""></path><path d="M46.132,19.397c-2.511-1.114-5.275-1.76-8.202-1.76c-0.342,0-0.664,0.084-1.003,0.102   c-0.251,0.228-0.537,0.393-0.779,0.638c-2.083,2.08-3.585,4.515-4.573,7.103c3.048-0.14,6.088,0.293,9.013,1.257   C41.976,23.952,43.861,21.475,46.132,19.397z" fill="#292929" style=""></path><path d="M60.41,26.736c2.924-0.964,5.961-1.396,9.01-1.257c-0.99-2.588-2.492-5.017-4.572-7.103   c-0.24-0.245-0.528-0.41-0.781-0.638c-0.34-0.018-0.659-0.102-1.004-0.102c-2.924,0-5.691,0.646-8.2,1.76   C57.137,21.475,59.022,23.952,60.41,26.736z" fill="#292929" style=""></path><path d="M82.621,36.148c-2.082-2.081-4.511-3.583-7.095-4.572c0.14,3.05-0.297,6.087-1.261,9.016   c2.78,1.388,5.257,3.271,7.334,5.547c1.117-2.515,1.764-5.281,1.764-8.205c0-0.345-0.088-0.663-0.105-1.004   C83.031,36.677,82.865,36.394,82.621,36.148z" fill="#292929" style=""></path><path d="M58.228,63.068c0-0.166-0.048-0.319-0.052-0.484c-1.061-0.21-2.09-0.498-3.099-0.834c-0.462,0.921-0.89,1.851-1.469,2.719   c0.113,0.122,0.19,0.267,0.309,0.384c1.143,1.14,2.404,2.069,3.718,2.881C57.993,66.228,58.228,64.683,58.228,63.068z" fill="#292929" style=""></path><path d="M43.362,67.733c1.313-0.812,2.574-1.741,3.715-2.881c0.12-0.117,0.199-0.262,0.312-0.384   c-0.581-0.868-1.008-1.798-1.471-2.719c-1.008,0.336-2.038,0.624-3.1,0.834c-0.002,0.165-0.048,0.318-0.048,0.484   C42.771,64.683,43.006,66.228,43.362,67.733z" fill="#292929" style=""></path><path d="M36.148,53.922c-1.139,1.14-2.068,2.4-2.88,3.717c1.503,0.355,3.051,0.59,4.663,0.59c0.166,0,0.318-0.044,0.484-0.048   c0.209-1.06,0.495-2.094,0.833-3.102c-0.918-0.463-1.848-0.886-2.716-1.471C36.411,53.726,36.269,53.805,36.148,53.922z" fill="#292929" style=""></path><path d="M38.415,42.821c-0.166-0.006-0.319-0.05-0.484-0.05c-1.612,0-3.159,0.236-4.663,0.591c0.812,1.318,1.739,2.578,2.88,3.717   c0.12,0.118,0.262,0.196,0.384,0.314c0.868-0.583,1.797-1.008,2.716-1.471C38.91,44.916,38.625,43.881,38.415,42.821z" fill="#292929" style=""></path><path d="M42.771,37.934c0,0.166,0.046,0.318,0.048,0.484c1.062,0.21,2.092,0.498,3.1,0.834c0.462-0.921,0.89-1.851,1.471-2.719   c-0.113-0.123-0.192-0.267-0.312-0.385c-1.141-1.139-2.402-2.066-3.715-2.879C43.006,34.774,42.771,36.319,42.771,37.934z" fill="#292929" style=""></path><path d="M57.635,33.27c-1.314,0.812-2.575,1.74-3.718,2.879c-0.118,0.118-0.195,0.262-0.309,0.385   c0.579,0.868,1.007,1.798,1.469,2.719c1.008-0.336,2.038-0.624,3.099-0.834c0.004-0.166,0.052-0.318,0.052-0.484   C58.228,36.319,57.993,34.774,57.635,33.27z" fill="#292929" style=""></path><path d="M63.063,42.771c-0.166,0-0.314,0.044-0.48,0.05c-0.209,1.06-0.498,2.095-0.838,3.102c0.921,0.463,1.851,0.888,2.719,1.471   c0.122-0.118,0.266-0.196,0.384-0.314c1.139-1.139,2.067-2.398,2.883-3.717C66.226,43.008,64.678,42.771,63.063,42.771z" fill="#292929" style=""></path><path d="M48.074,49.493c-0.035,0.676-0.035,1.339,0,2.012c0.452,0.502,0.921,0.969,1.42,1.423c0.671,0.034,1.335,0.034,2.007,0   c0.5-0.454,0.972-0.926,1.423-1.423c0.035-0.673,0.033-1.336,0-2.008c-0.451-0.502-0.921-0.969-1.42-1.423   c-0.673-0.035-1.34-0.035-2.012,0C48.995,48.528,48.524,48.995,48.074,49.493z" fill="#292929" style=""></path><path d="M64.464,53.608c-0.868,0.585-1.798,1.008-2.719,1.471c0.34,1.008,0.628,2.042,0.838,3.102   c0.166,0.004,0.314,0.048,0.48,0.048c1.615,0,3.163-0.234,4.668-0.59c-0.816-1.316-1.745-2.577-2.883-3.717   C64.73,53.805,64.586,53.726,64.464,53.608z" fill="#292929" style=""></path><path d="M72.271,55.926c2.583-1.327,4.827-3.173,6.615-5.425c-1.788-2.252-4.031-4.098-6.615-5.425   c-1.091,1.929-2.357,3.784-3.998,5.425C69.914,52.142,71.179,53.996,72.271,55.926z" fill="#292929" style=""></path><path d="M62.138,31.245c0.585,2.133,0.925,4.367,0.925,6.688c2.322,0,4.555,0.341,6.689,0.93c0.868-2.745,1.143-5.603,0.82-8.436   C67.74,30.104,64.879,30.375,62.138,31.245z" fill="#292929" style=""></path><path d="M50.498,22.11c-2.253,1.794-4.099,4.033-5.424,6.616c1.927,1.096,3.782,2.361,5.424,4.002   c1.644-1.641,3.498-2.906,5.426-4.002C54.597,26.144,52.752,23.904,50.498,22.11z" fill="#292929" style=""></path><path d="M37.931,37.934c0-2.321,0.34-4.556,0.927-6.688c-2.74-0.87-5.601-1.141-8.432-0.817c-0.323,2.833-0.05,5.69,0.817,8.436   C33.377,38.274,35.612,37.934,37.931,37.934z" fill="#292929" style=""></path><path d="M22.108,50.501c1.794,2.252,4.034,4.098,6.618,5.425c1.091-1.93,2.356-3.784,3.999-5.425   c-1.643-1.641-2.908-3.496-4.001-5.425C26.143,46.403,23.902,48.249,22.108,50.501z" fill="#292929" style=""></path><path d="M38.858,69.757c-0.587-2.133-0.927-4.367-0.927-6.688c-2.319,0-4.553-0.341-6.688-0.93   c-0.868,2.745-1.14,5.604-0.817,8.436C33.257,70.896,36.118,70.627,38.858,69.757z" fill="#292929" style=""></path><path d="M50.498,78.891c2.255-1.793,4.1-4.032,5.426-6.616c-1.929-1.095-3.782-2.36-5.426-4c-1.642,1.64-3.497,2.905-5.424,4   C46.401,74.858,48.245,77.098,50.498,78.891z" fill="#292929" style=""></path><path d="M63.063,63.068c0,2.321-0.34,4.556-0.925,6.688c2.741,0.87,5.602,1.139,8.435,0.817c0.323-2.832,0.048-5.695-0.82-8.436   C67.618,62.728,65.385,63.068,63.063,63.068z" fill="#292929" style=""></path><path d="M87.425,44.026c-0.571,2.304-1.457,4.476-2.614,6.475c1.157,1.999,2.043,4.177,2.614,6.475   C88.844,52.771,88.844,48.231,87.425,44.026z" fill="#292929" style=""></path><path d="M81.233,29.05c-1.981-4.041-5.244-7.301-9.286-9.282c1.249,2.063,2.147,4.268,2.745,6.541   C76.966,26.907,79.165,27.802,81.233,29.05z" fill="#292929" style=""></path><path d="M56.971,13.576c-4.204-1.418-8.742-1.418-12.947,0c2.3,0.571,4.473,1.453,6.473,2.614   C52.5,15.029,54.671,14.147,56.971,13.576z" fill="#292929" style=""></path><path d="M29.047,19.768c-4.042,1.981-7.301,5.241-9.284,9.282c2.066-1.248,4.268-2.143,6.541-2.741   C26.904,24.035,27.798,21.831,29.047,19.768z" fill="#292929" style=""></path><path d="M13.571,56.973c0.574-2.3,1.458-4.473,2.616-6.472c-1.159-1.999-2.04-4.171-2.616-6.472   C12.158,48.231,12.158,52.771,13.571,56.973z" fill="#292929" style=""></path><path d="M19.765,71.952c1.981,4.041,5.24,7.297,9.279,9.282c-1.248-2.068-2.141-4.269-2.741-6.542   C24.031,74.095,21.829,73.2,19.765,71.952z" fill="#292929" style=""></path><path d="M44.024,87.426c4.205,1.418,8.746,1.418,12.947,0c-2.3-0.572-4.472-1.453-6.474-2.614   C48.498,85.973,46.324,86.854,44.024,87.426z" fill="#292929" style=""></path><path d="M71.952,81.234c4.037-1.985,7.3-5.241,9.281-9.282c-2.068,1.248-4.267,2.143-6.541,2.74   C74.095,76.966,73.2,79.166,71.952,81.234z" fill="#292929" style=""></path></g><desc>Created with Snap</desc><defs></defs></g><g><g transform="matrix(1.024,0,0,-1.024,0,0)"><path d="M834 0L784 0L783 599L490 93L465 93L172 597L172 0L122 0L122 700L165 700L478 159L791 700L833 700L834 0ZM1964 700L2014 700L1777 0L1723 0L1506 628L1288 0L1234 0L996 700L1050 700L1263 70L1482 700L1531 700L1749 69L1964 700ZM3319 700L3369 700L3132 0L3078 0L2861 628L2643 0L2589 0L2351 700L2405 700L2618 70L2837 700L2886 700L3104 69L3319 700ZM3957 263L3956 249L3507 249Q3509 188 3538 140Q3567 93 3616 67Q3666 41 3728 41Q3779 41 3822 59Q3866 78 3895 114L3924 81Q3890 40 3838 18Q3787 -4 3727 -4Q3649 -4 3588 30Q3527 64 3492 124Q3458 184 3458 261Q3458 337 3490 397Q3523 458 3580 492Q3637 526 3708 526Q3779 526 3835 492Q3892 459 3924 399Q3957 339 3957 263ZM3708 482Q3653 482 3609 457Q3565 433 3538 388Q3512 344 3508 288L3908 288Q3905 344 3878 388Q3851 432 3807 457Q3763 482 3708 482ZM4374 526Q4447 526 4506 492Q4565 459 4598 398Q4632 338 4632 261Q4632 184 4598 124Q4565 64 4506 30Q4447 -4 4374 -4Q4304 -4 4247 29Q4191 63 4160 123L4160 0L4112 0L4112 742L4162 742L4162 403Q4193 461 4249 493Q4305 526 4374 526ZM4371 41Q4431 41 4479 69Q4527 97 4554 147Q4582 197 4582 261Q4582 325 4554 375Q4527 425 4479 453Q4431 481 4371 481Q4311 481 4263 453Q4216 425 4188 375Q4161 325 4161 261Q4161 197 4188 147Q4216 97 4263 69Q4311 41 4371 41ZM5060 0L5060 700L5337 700Q5446 700 5530 655Q5615 610 5662 530Q5709 451 5709 350Q5709 249 5662 169Q5615 90 5530 45Q5446 0 5337 0L5060 0ZM5111 46L5333 46Q5430 46 5504 84Q5578 123 5618 192Q5658 261 5658 350Q5658 439 5618 508Q5578 577 5504 615Q5430 654 5333 654L5111 654L5111 46ZM6312 263L6311 249L5862 249Q5864 188 5893 140Q5922 93 5971 67Q6021 41 6083 41Q6134 41 6177 59Q6221 78 6250 114L6279 81Q6245 40 6193 18Q6142 -4 6082 -4Q6004 -4 5943 30Q5882 64 5847 124Q5813 184 5813 261Q5813 337 5845 397Q5878 458 5935 492Q5992 526 6063 526Q6134 526 6190 492Q6247 459 6279 399Q6312 339 6312 263ZM6063 482Q6008 482 5964 457Q5920 433 5893 388Q5867 344 5863 288L6263 288Q6260 344 6233 388Q6206 432 6162 457Q6118 482 6063 482ZM6599 -4Q6536 -4 6479 15Q6422 34 6390 63L6413 103Q6445 76 6495 58Q6546 40 6601 40Q6680 40 6717 66Q6755 92 6755 138Q6755 171 6734 190Q6714 209 6684 218Q6654 227 6601 237Q6539 248 6501 261Q6463 274 6436 303Q6409 332 6409 383Q6409 445 6460 485Q6512 526 6607 526Q6657 526 6706 512Q6755 498 6786 475L6763 435Q6731 458 6690 470Q6649 482 6606 482Q6533 482 6496 455Q6459 428 6459 384Q6459 349 6480 329Q6501 310 6531 300Q6562 291 6617 280Q6678 269 6715 256Q6753 244 6779 216Q6805 188 6805 139Q6805 74 6751 35Q6697 -4 6599 -4ZM6945 0L6945 522L6995 522L6995 0L6945 0ZM6970 649Q6953 649 6941 660Q6929 672 6929 689Q6929 706 6941 718Q6953 730 6970 730Q6987 730 6999 718Q7011 707 7011 690Q7011 673 6999 661Q6987 649 6970 649ZM7628 522L7676 522L7676 56Q7676 -74 7613 -136Q7550 -198 7423 -198Q7351 -198 7287 -176Q7223 -154 7184 -115L7211 -77Q7250 -113 7305 -133Q7360 -153 7422 -153Q7526 -153 7576 -104Q7626 -54 7626 50L7626 138Q7594 81 7537 50Q7480 19 7409 19Q7336 19 7276 51Q7217 84 7183 142Q7149 200 7149 273Q7149 346 7183 404Q7217 462 7276 494Q7336 526 7409 526Q7481 526 7539 494Q7597 462 7628 404L7628 522ZM7413 64Q7474 64 7523 90Q7572 117 7599 164Q7627 212 7627 273Q7627 334 7599 381Q7572 428 7523 454Q7474 481 7413 481Q7352 481 7303 454Q7255 428 7227 381Q7200 334 7200 273Q7200 212 7227 164Q7255 117 7303 90Q7352 64 7413 64ZM8143 526Q8241 526 8298 469Q8355 412 8355 305L8355 0L8305 0L8305 301Q8305 389 8260 435Q8216 481 8136 481Q8044 481 7991 426Q7938 371 7938 278L7938 0L7888 0L7888 522L7936 522L7936 409Q7963 464 8016 495Q8070 526 8143 526Z" fill="#292929" style=""></path></g></g></g></svg>